
<svg width="90px" height="86px" viewBox="0 0 90 86" version="1.1" xmlns="http://www.w3.org/2000/svg" xmlns:xlink="http://www.w3.org/1999/xlink">
    <!-- Generator: Sketch 47.1 (45422) - http://www.bohemiancoding.com/sketch -->
    <desc>Created with Sketch.</desc>
    <defs></defs>
    <g id="Page-1" stroke="none" stroke-width="1" fill="none" fill-rule="evenodd">
        <g id="noun_1409353_cc" fill-rule="nonzero" fill="#16D895">
            <g id="Group">
                <path d="M79.1,43.8 C79.1103557,28.3262636 68.7004991,14.7852259 53.7441423,10.817353 C38.7877854,6.84948016 23.0345617,13.4495377 15.3731527,26.8934745 C7.71174372,40.3374114 10.062903,57.2547654 21.1,68.1 L14.6,79.5 C13.8854688,80.7504296 13.892311,82.287072 14.6179492,83.5310889 C15.3435874,84.7751058 16.6777798,85.5375015 18.1179492,85.5310889 C19.5581186,85.5246763 20.8854688,84.7504296 21.6,83.5 L27.4,73 C38.1955165,79.5061378 51.7044835,79.5061378 62.5,73 L68.4,83.4 C69.5045695,85.3329966 71.9670034,86.0045695 73.9,84.9 C75.8329966,83.7954305 76.5045695,81.3329966 75.4,79.4 L68.9,68.1 C75.4286139,61.7006812 79.1051458,52.9418846 79.1,43.8 L79.1,43.8 Z M18.9,43.8 C18.9,29.385368 30.585368,17.7 45,17.7 C59.414632,17.7 71.1,29.385368 71.1,43.8 C71.1,58.214632 59.414632,69.9 45,69.9 C30.585368,69.9 18.9,58.214632 18.9,43.8 L18.9,43.8 Z" id="Shape"></path>
                <path d="M56.2,41.8 L47.2,41.8 L47.2,29.2 C47.2,26.990861 45.409139,25.2 43.2,25.2 C40.990861,25.2 39.2,26.990861 39.2,29.2 L39.2,45.8 C39.2,48.009139 40.990861,49.8 43.2,49.8 L56.2,49.8 C58.409139,49.8 60.2,48.009139 60.2,45.8 C60.2,43.590861 58.409139,41.8 56.2,41.8 Z" id="Shape"></path>
                <path d="M8.2,29.3 C9.24091089,29.3116436 10.2453575,28.9170396 11,28.2 L28.2,10.9 C28.9634314,10.1481705 29.3933116,9.12148267 29.3933116,8.05 C29.3933116,6.97851733 28.9634314,5.9518295 28.2,5.2 C24.0914457,1.10930889 18.1126273,-0.478757933 12.5157078,1.03400894 C6.91878823,2.5467758 2.55407284,6.93055109 1.06570766,12.534009 C-0.422657509,18.137467 1.19144561,24.109309 5.3,28.2 C6.07938122,28.941775 7.12473294,29.3382877 8.2,29.3 Z M11,10.9 C13.0924618,8.80788301 16.1497598,8.00534229 19,8.8 L8.9,18.9 C8.10534229,16.0497598 8.90788301,12.9924618 11,10.9 L11,10.9 Z" id="Shape"></path>
                <path d="M61.8,5.3 C61.0365686,6.0518295 60.6066884,7.07851733 60.6066884,8.15 C60.6066884,9.22148267 61.0365686,10.2481705 61.8,11 L79,28.2 C79.7518295,28.9634314 80.7785173,29.3933116 81.85,29.3933116 C82.9214827,29.3933116 83.9481705,28.9634314 84.7,28.2 C88.9973307,24.1524917 90.7527653,18.0878045 89.2818304,12.3706614 C87.8108955,6.65351828 83.3464817,2.18910449 77.6293386,0.718169602 C71.9121955,-0.752765289 65.8475083,1.00266927 61.8,5.3 L61.8,5.3 Z M81.1,18.9 L71,8.8 C73.8501323,8.00588756 76.9070405,8.80873464 78.9991529,10.9008471 C81.0912654,12.9929595 81.8941124,16.0498677 81.1,18.9 L81.1,18.9 Z" id="Shape"></path>
            </g>
        </g>
    </g>
</svg>
