
<svg width="44px" height="41px" viewBox="0 0 44 41" version="1.1" xmlns="http://www.w3.org/2000/svg" xmlns:xlink="http://www.w3.org/1999/xlink">
    <!-- Generator: Sketch 47.1 (45422) - http://www.bohemiancoding.com/sketch -->
    <desc>Created with Sketch.</desc>
    <defs></defs>
    <g id="Page-1" stroke="none" stroke-width="1" fill="none" fill-rule="evenodd">
        <g id="return-view-dashboard" transform="translate(-562.000000, -118.000000)" fill-rule="nonzero" fill="#ffffff">
            <g id="main" transform="translate(87.000000, 80.000000)">
                <g id="content" transform="translate(145.000000, 38.000000)">
                    <g id="amount">
                        <g id="noun_698555_cc" transform="translate(330.000000, 0.000000)">
                            <g id="Group">
                                <path d="M44.000005,20.3569 C43.972005,19.6419 43.677705,18.8155 43.187505,18.2943 L27.187505,1.29354 C26.103305,0.31924 24.024285,-0.08296 22.812485,1.04354 C21.618885,2.15304 21.654385,4.30484 22.843485,5.41874 L34.093505,17.35684 L2.999985,17.35684 C1.343185,17.35684 -1.5e-05,18.7 -1.5e-05,20.3569 C-1.5e-05,22.0138 1.343185,23.357 2.999985,23.357 L34.093505,23.357 L22.843485,35.2951 C21.819785,36.3206 21.630585,38.5481 22.812485,39.6703 C23.994085,40.7924 26.147805,40.4339 27.187505,39.4202 L43.187505,22.4195 C43.735005,21.8377 44.001805,21.1551 44.000005,20.3569 L44.000005,20.3569 Z" id="Shape"></path>
                            </g>
                        </g>
                    </g>
                </g>
            </g>
        </g>
    </g>
</svg>
