
<svg width="20px" height="23px" viewBox="0 0 20 23" version="1.1" xmlns="http://www.w3.org/2000/svg" xmlns:xlink="http://www.w3.org/1999/xlink">
    <!-- Generator: Sketch 47.1 (45422) - http://www.bohemiancoding.com/sketch -->
    <desc>Created with Sketch.</desc>
    <defs></defs>
    <g id="Page-1" stroke="none" stroke-width="1" fill="none" fill-rule="evenodd">
        <g id="return-view-dashboard" transform="translate(-837.000000, -303.000000)" fill-rule="nonzero" fill="#5081F5">
            <g id="sidebar" transform="translate(836.000000, 129.000000)">
                <g id="content" transform="translate(0.000000, 48.000000)">
                    <g id="next" transform="translate(0.000000, 126.000000)">
                        <path d="M19.7136364,6.86136364 L19.0818182,7.5 C21.0971343,10.1855782 21.4818692,13.7584476 20.0845036,16.8115114 C18.6871379,19.8645752 15.7315825,21.9086173 12.3818182,22.1386364 C12.1727273,22.1522727 11.9651515,22.1590909 11.7590909,22.1590909 C9.16544789,22.1647506 6.69194071,21.0664242 4.95681818,19.1386364 C4.75531136,18.9048118 4.77734435,18.55288 5.00644099,18.3460138 C5.23553764,18.1391475 5.58788523,18.1530268 5.8,18.3772727 C8.73701816,21.6285639 13.738578,21.9241712 17.0381331,19.0414804 C20.3376882,16.1587896 20.7162068,11.1628204 17.8886364,7.81590909 C17.6966756,7.59009868 17.7105282,7.25466785 17.9204545,7.04545455 L18.9113636,6.05454545 C19.0551078,5.89558136 19.0489839,5.65183396 18.8974386,5.50028864 C18.7458933,5.34874332 18.5021459,5.34261948 18.3431818,5.48636364 L17.3136364,6.51590909 C17.1134945,6.71597904 16.7966317,6.73826603 16.5704545,6.56818182 C15.4302018,5.71301078 14.0822362,5.17790451 12.6659091,5.01818182 C12.3780217,4.98690772 12.1597138,4.74412593 12.1590909,4.45454545 L12.1590909,2.62272727 C12.1566544,2.47046717 12.2154389,2.32360141 12.3222589,2.21507231 C12.4290789,2.1065432 12.5749931,2.04543505 12.7272727,2.04545455 L13.2477273,2.04545455 C13.4698964,2.04545455 13.65,1.86535091 13.65,1.64318182 C13.65,1.42101273 13.4698964,1.24090909 13.2477273,1.24090909 L10.2659091,1.24090909 C10.04374,1.24090909 9.86363636,1.42101273 9.86363636,1.64318182 C9.86363636,1.86535091 10.04374,2.04545455 10.2659091,2.04545455 L10.7863636,2.04545455 C11.1001618,2.04545455 11.3545455,2.29983821 11.3545455,2.61363636 L11.3545455,4.45454545 C11.3540521,4.7433488 11.1369867,4.98583622 10.85,5.01818182 C9.0132059,5.22849855 7.30509846,6.06569595 6.01363636,7.38863636 C5.87113611,7.5339785 5.66192134,7.5922572 5.46480123,7.54151943 C5.26768112,7.49078166 5.11260291,7.3387357 5.05798305,7.14265579 C5.00336319,6.94657588 5.05749975,6.73625123 5.2,6.59090909 C6.55382881,5.20747598 8.31014695,4.28715892 10.2181818,3.96136364 L10.2181818,3.18181818 C9.41663603,3.10879454 8.80681004,2.43036403 8.81932865,1.62559612 C8.83184726,0.820828212 9.46247982,0.161693729 10.2659091,0.113636364 L13.2477273,0.113636364 C14.0511565,0.161693729 14.6817891,0.820828212 14.6943077,1.62559612 C14.7068263,2.43036403 14.0970003,3.10879454 13.2954545,3.18181818 L13.2954545,3.95227273 C14.5657392,4.16726555 15.776266,4.64822342 16.8477273,5.36363636 L17.5295455,4.68181818 C18.1301551,4.08058092 19.1044446,4.08007215 19.7056818,4.68068182 C20.3069191,5.28129148 20.3074278,6.25558092 19.7068182,6.85681818 L19.7136364,6.86136364 Z M1.07727273,10.0840909 C1.07727273,10.3978891 1.33165639,10.6522727 1.64545455,10.6522727 L5.59090909,10.6522727 C5.90470724,10.6522727 6.15909091,10.3978891 6.15909091,10.0840909 C6.15909091,9.77029276 5.90470724,9.51590909 5.59090909,9.51590909 L1.64772727,9.51590909 C1.33481454,9.51590659 1.08079711,9.76890795 1.07954545,10.0818182 L1.07727273,10.0840909 Z M7.53636364,12.8386364 C7.53636364,12.5248382 7.28197997,12.2704545 6.96818182,12.2704545 L3.025,12.2704545 C2.71120185,12.2704545 2.45681818,12.5248382 2.45681818,12.8386364 C2.45681818,13.1524345 2.71120185,13.4068182 3.025,13.4068182 L6.96818182,13.4068182 C7.11887301,13.4068182 7.26339227,13.3469563 7.36994703,13.2404016 C7.4765018,13.1338468 7.53636364,12.9893276 7.53636364,12.8386364 L7.53636364,12.8386364 Z M1.64772727,16.1636364 L5.59090909,16.1636364 C5.90470724,16.1636364 6.15909091,15.9092527 6.15909091,15.5954545 C6.15909091,15.2816564 5.90470724,15.0272727 5.59090909,15.0272727 L1.64772727,15.0272727 C1.33392912,15.0272727 1.07954545,15.2816564 1.07954545,15.5954545 C1.07954545,15.9092527 1.33392912,16.1636364 1.64772727,16.1636364 Z M14.9090909,10.6454545 L13.4522727,12.1022727 C13.8946642,12.942459 13.6566267,13.9798254 12.8921946,14.5430899 C12.1277626,15.1063544 11.0664431,15.0264071 10.395018,14.354982 C9.72359287,13.6835569 9.64364557,12.6222374 10.2069101,11.8578054 C10.7701746,11.0933733 11.807541,10.8553358 12.6477273,11.2977273 L14.1045455,9.84090909 C14.2482637,9.69719089 14.4577375,9.64106254 14.6540602,9.69366705 C14.8503829,9.74627157 15.0037284,9.89961706 15.0563329,10.0959398 C15.1089375,10.2922625 15.0528091,10.5017363 14.9090909,10.6454545 L14.9090909,10.6454545 Z M12.5363636,12.9954545 C12.5363636,12.5649235 12.1873492,12.2159091 11.7568182,12.2159091 C11.3262871,12.2159091 10.9772727,12.5649235 10.9772727,12.9954545 C10.9772727,13.4259856 11.3262871,13.775 11.7568182,13.775 C12.1868312,13.7737518 12.5351154,13.4254675 12.5363636,12.9954545 L12.5363636,12.9954545 Z M11.7568182,19.7568182 C14.8195349,19.7616508 17.5032729,17.7078306 18.2989127,14.7502616 C19.0945526,11.7926926 17.803503,8.66958223 15.151747,7.1371178 C12.499991,5.60465337 9.14940523,6.04533705 6.98409091,8.21136364 C6.76192182,8.43353273 6.76192182,8.79373999 6.98409092,9.01590908 C7.20626001,9.23807818 7.56646727,9.23807818 7.78863636,9.01590909 C9.39791415,7.4038673 11.8200395,6.92045603 13.9248425,7.79123623 C16.0296455,8.66201643 17.4022857,10.7153641 17.4022857,12.9931818 C17.4022857,15.2709996 16.0296455,17.3243472 13.9248425,18.1951274 C11.8200395,19.0659076 9.39791415,18.5824963 7.78863636,16.9704545 C7.56646727,16.7482855 7.20626001,16.7482855 6.98409092,16.9704546 C6.76192182,17.1926236 6.76192182,17.5528309 6.98409091,17.775 C8.24883365,19.0429909 9.96590376,19.7559838 11.7568182,19.7568182 L11.7568182,19.7568182 Z" id="Shape"></path>
                    </g>
                </g>
            </g>
        </g>
    </g>
</svg>
