
<svg width="76px" height="76px" viewBox="0 0 76 76" version="1.1" xmlns="http://www.w3.org/2000/svg" xmlns:xlink="http://www.w3.org/1999/xlink">
    <!-- Generator: Sketch 47.1 (45422) - http://www.bohemiancoding.com/sketch -->
    <desc>Created with Sketch.</desc>
    <defs></defs>
    <g id="Page-1" stroke="none" stroke-width="1" fill="none" fill-rule="evenodd">
        <g id="noun_1528461_cc" fill-rule="nonzero" fill="#5081F5">
            <g id="Group">
                <path d="M38,5 C18.7,4.9 2.9,20.5 2.9,39.9 C2.9,48.9 6.3,57.5 12.4,64 L7.1,70.9 L13.5,75.8 L18.5,69.2 C30.3,77.1 45.7,77.1 57.5,69.2 L62.5,75.8 L68.9,70.9 L63.6,64 C76.9,49.9 76.2,27.8 62.1,14.5 C55.6,8.4 47,5 38,5 Z M38,67.1 C23,67.1 10.9,55 10.9,40 C10.9,25 23,12.9 38,12.9 C53,12.9 65.1,25 65.1,40 L65.1,40 C65.1,55 53,67.1 38,67.1 Z" id="Shape"></path>
                <polygon id="Shape" points="24.9 25.4 19.8 31.6 36.2 45.1 55 45.1 55 37.1 39.1 37.1"></polygon>
                <path d="M8,15.7 C8,11.6 11.3,8.3 15.4,8.2 L19.4,8.2 L19.4,0.2 L15.4,0.2 C6.9,0.3 -1.77635684e-15,7.2 -1.77635684e-15,15.7 L-1.77635684e-15,19.7 L8,19.7 L8,15.7 Z" id="Shape"></path>
                <path d="M60.6,0.2 L56.6,0.2 L56.6,8.2 L60.6,8.2 C64.7,8.3 68,11.6 68,15.7 L68,19.7 L76,19.7 L76,15.7 C76,7.2 69.1,0.3 60.6,0.2 Z" id="Shape"></path>
            </g>
        </g>
    </g>
</svg>
