
<svg width="94px" height="58px" viewBox="0 0 94 58" version="1.1" xmlns="http://www.w3.org/2000/svg" xmlns:xlink="http://www.w3.org/1999/xlink">
    <!-- Generator: Sketch 47.1 (45422) - http://www.bohemiancoding.com/sketch -->
    <desc>Created with Sketch.</desc>
    <defs></defs>
    <g id="Page-1" stroke="none" stroke-width="1" fill="none" fill-rule="evenodd">
        <g id="noun_840259_cc" transform="translate(0.000000, -1.000000)" fill-rule="nonzero" fill="#000000">
            <g id="Group" transform="translate(0.000000, 0.637820)">
                <path d="M3.0001291,0.36234 C1.2776692,0.37334 0.0330092,2.09814 0.0001292,3.36234 L0.0001292,49.3623 C-0.0222708,50.9472 1.4150292,52.3935 3.0001291,52.3935 C4.5852291,52.3935 6.0225391,50.9472 6.0001291,49.3623 L6.0001291,6.36234 L87.000129,6.36234 C88.585069,6.38434 90.031379,4.94744 90.031379,3.36234 C90.031379,1.77724 88.585069,0.33994 87.000129,0.36234 L3.0001291,0.36234 L3.0001291,0.36234 Z M11.000129,8.36234 C9.359459,8.37234 8.033009,10.09814 8.000129,11.36234 L8.000129,55.3623 C8.000289,56.9331 9.429379,58.3621 11.000129,58.3623 L91.000129,58.3623 C92.570879,58.3621 93.999969,56.9331 94.000129,55.3623 L94.000129,11.36234 C93.999969,9.79154 92.570879,8.36254 91.000129,8.36234 L11.000129,8.36234 Z M14.000129,14.36234 L33.218879,14.36234 C28.731799,19.26957 26.000129,25.99917 26.000129,33.3624 C26.000129,40.74 28.747349,47.4621 33.250129,52.3623 L14.000129,52.3623 L14.000129,14.36234 Z M42.875129,14.36234 L59.125129,14.36234 C65.461409,17.68947 70.000129,24.89637 70.000129,33.3624 C70.000129,41.8559 65.431259,49.0514 59.062629,52.3623 L42.937629,52.3623 C36.569009,49.0514 32.000129,41.8559 32.000129,33.3624 C32.000129,24.89637 36.538859,17.68947 42.875129,14.36234 Z M68.781379,14.36234 L88.000129,14.36234 L88.000129,52.3623 L68.750129,52.3623 C73.252909,47.4621 76.000129,40.74 76.000129,33.3624 C76.000129,25.99917 73.268459,19.26957 68.781379,14.36234 Z M51.000129,15.36234 C49.343279,15.36234 48.000129,16.70557 48.000129,18.36237 L48.000129,18.92487 C44.587359,20.15887 42.000129,23.39167 42.000129,27.3624 C42.000129,30.1252 43.440629,32.5078 45.125129,33.7374 C46.809629,34.9671 48.458879,35.4527 49.718879,36.0499 C51.742199,36.9319 53.995389,37.733 54.000129,39.3624 C54.000129,41.5565 52.982519,42.3624 51.000129,42.3624 C49.569779,42.3624 48.272369,41.1881 47.687629,40.0186 C46.984039,38.6114 45.063549,37.9713 43.656379,38.6749 C42.249209,39.3785 41.609039,41.2989 42.312629,42.7062 C43.365679,44.8122 45.324169,46.9237 48.000129,47.8624 L48.000129,48.3623 C48.000129,50.0192 49.343279,51.3623 51.000129,51.3623 C52.656979,51.3623 54.000129,50.0192 54.000129,48.3623 L54.000129,47.8312 C57.412919,46.5972 60.000129,43.3331 60.000129,39.3624 C60.000129,36.5996 58.559639,34.1858 56.875129,32.9562 C55.190619,31.7265 53.541399,31.2409 52.281379,30.6436 C50.269509,29.7634 48.004779,28.9591 48.000129,27.3624 C48.000129,25.16817 49.017659,24.36237 51.000129,24.36237 C52.430479,24.36237 53.727889,25.53667 54.312629,26.70617 C55.016219,28.1134 56.936709,28.7535 58.343879,28.0499 C59.751049,27.3463 60.391219,25.42587 59.687629,24.01857 C58.634579,21.91257 56.676089,19.83237 54.000129,18.89357 L54.000129,18.36237 C54.000129,16.70557 52.656979,15.36234 51.000129,15.36234 L51.000129,15.36234 Z" id="Shape"></path>
            </g>
        </g>
    </g>
</svg>
