
<svg width="20px" height="21px" viewBox="0 0 20 21" version="1.1" xmlns="http://www.w3.org/2000/svg" xmlns:xlink="http://www.w3.org/1999/xlink">
  <!-- Generator: Sketch 47.1 (45422) - http://www.bohemiancoding.com/sketch -->
  <desc>Created with Sketch.</desc>
  <defs></defs>
  <g id="Page-1" stroke="none" stroke-width="1" fill="none" fill-rule="evenodd">
    <g id="receive-view-dashboard-copy" transform="translate(-840.000000, -173.000000)" fill-rule="nonzero" fill="#5081F5">
      <g id="content" transform="translate(100.000000, 129.000000)">
        <g id="sidebar" transform="translate(740.000000, 0.000000)">
          <g id="sidebar-content" transform="translate(0.000000, 44.000000)">
            <g id="Group-6">
              <g id="today">
                <path d="M4.50695929,3.68214228 L14.3426333,6.12572682 C14.6268707,6.19634994 14.800871,6.48741775 14.7312738,6.77584496 C14.6616765,7.06427217 14.3748369,7.24083726 14.0905995,7.17021414 L4.25492543,4.72448045 C3.9070952,4.63572893 3.5386058,4.69594888 3.23582217,4.89102622 C2.93303854,5.08610356 2.72257866,5.39888886 2.65376919,5.75607287 C2.59528413,6.04746743 2.31508209,6.23557902 2.02792042,6.17623186 C1.74075876,6.1168847 1.55537974,5.83255235 1.61386481,5.54115778 C1.73930576,4.89854177 2.11810354,4.33585966 2.66241294,3.9836004 C3.20672233,3.63134114 3.86925627,3.52010738 4.49636963,3.67569482 L4.50695929,3.68214228 Z M6.95317021,1.90909281 C7.12668624,1.59284048 7.42006357,1.36231075 7.76523059,1.27099283 C8.11039761,1.17967491 8.47735015,1.23550676 8.78094512,1.42553386 L17.5131768,6.89512283 C17.6741372,7.00280116 17.8800537,7.01319175 18.0507475,6.92224875 C18.2214413,6.83130574 18.3299319,6.653404 18.3339757,6.45781396 C18.3380196,6.26222391 18.2369776,6.07986137 18.0701928,5.98173371 L9.33796112,0.512144739 C8.78831663,0.16760647 8.12372388,0.0661595445 7.49851407,0.231361888 C6.87330426,0.396564231 6.34187491,0.81404211 6.02763413,1.38684914 C5.88551542,1.64619624 5.97749376,1.97334684 6.23307349,2.11756044 C6.48865322,2.26177405 6.8110515,2.16843991 6.95317021,1.90909281 Z M12.3750749,14.3935102 C12.3750749,15.8059727 11.2466809,16.9509998 9.85473641,16.9509998 C8.46279188,16.9509998 7.33439788,15.8059727 7.33439788,14.3935102 C7.33439788,12.9810478 8.46279188,11.8360207 9.85473641,11.8360207 C11.2461969,11.8372057 12.3739071,12.9815389 12.3750749,14.3935102 L12.3750749,14.3935102 Z M11.3161092,14.3935102 C11.3161092,13.5745194 10.6618303,12.9105961 9.85473641,12.9105961 C9.04764252,12.9105961 8.39336365,13.5745194 8.39336365,14.3935102 C8.39336365,15.2125011 9.04764252,15.8764243 9.85473641,15.8764243 C10.6613466,15.8752407 11.3149427,15.2120103 11.3161092,14.3935102 Z M19.7094718,18.62089 C19.7071405,19.933855 18.6588141,20.9976343 17.3649216,21 L2.34455119,21 C1.05065877,20.9976343 0.00233232259,19.933855 9.79219077e-07,18.62089 L9.79219077e-07,10.1682796 C-0.00117008519,8.8527974 1.04817973,7.78509398 2.34455119,7.78272214 L17.3649216,7.78272214 C18.6612931,7.78509398 19.7106429,8.8527974 19.7094718,10.1682796 L19.7094718,18.62089 Z M18.6505061,10.1682796 C18.6516312,9.8213535 18.5167505,9.48821417 18.2755955,9.24229507 C18.0344406,8.99637597 17.7068096,8.8578663 17.3649216,8.85729757 L2.34455119,8.85729757 C2.00266327,8.8578663 1.67503221,8.99637597 1.43387728,9.24229507 C1.19272236,9.48821417 1.05784165,9.8213535 1.05896675,10.1682796 L1.05896675,18.62089 C1.06013277,19.3408739 1.63502605,19.9242414 2.34455119,19.9254246 L17.3649216,19.9254246 C18.0744468,19.9242414 18.6493401,19.3408739 18.6505061,18.62089 L18.6505061,10.1682796 Z M17.6275451,12.9836672 L17.6275451,15.8055023 C17.627669,16.0567962 17.4561247,16.2746105 17.2145485,16.3298952 C16.1598565,16.5730675 15.3362569,17.4088073 15.096617,18.479046 C15.0421354,18.7241831 14.8274851,18.8982561 14.5798417,18.8981304 L5.1190415,18.8981304 C4.87139807,18.8982561 4.65674774,18.7241831 4.6022662,18.479046 C4.38284015,17.5094401 3.68134884,16.7259366 2.75119404,16.4115629 C2.35202329,16.2787599 2.0820704,15.9008029 2.08192768,15.4745331 L2.08192768,13.3253822 C2.0820704,12.8991124 2.35202329,12.5211555 2.75119404,12.3883525 C3.68189546,12.0735872 4.38349719,11.2891458 4.6022662,10.3187202 C4.65674774,10.073583 4.87139807,9.89951008 5.1190415,9.89963575 L14.5904313,9.89963575 C14.8380748,9.89951008 15.0527251,10.073583 15.1072066,10.3187202 C15.3463784,11.389221 16.1701878,12.2251738 17.2251382,12.467871 C17.4594492,12.5266375 17.6249415,12.7387619 17.6275451,12.9836672 L17.6275451,12.9836672 Z M16.5685794,13.3877076 C15.4569052,12.9914983 14.5827141,12.1044211 14.1922602,10.9763603 L5.5087409,10.9763603 C5.12035822,12.1027308 4.24950774,12.9895798 3.14089345,13.3877076 L3.14089345,15.401462 C4.25273627,15.7973993 5.12702684,16.6845773 5.51721263,17.8128093 L14.2007319,17.8128093 C14.5893818,16.6866088 15.4601336,15.7998603 16.5685794,15.401462 L16.5685794,13.3877076 Z" id="Shape"></path>
              </g>
            </g>
          </g>
        </g>
      </g>
    </g>
  </g>
</svg>
