
<svg width="50px" height="46px" viewBox="0 0 50 46" version="1.1" xmlns="http://www.w3.org/2000/svg" xmlns:xlink="http://www.w3.org/1999/xlink">
    <!-- Generator: Sketch 47.1 (45422) - http://www.bohemiancoding.com/sketch -->
    <desc>Created with Sketch.</desc>
    <defs></defs>
    <g id="Page-1" stroke="none" stroke-width="1" fill="none" fill-rule="evenodd">
        <g id="noun_33377_cc" fill-rule="nonzero" fill="#5081F5">
            <g id="Group">
                <path d="M27.529,31.61 C12.95,30.298 10.139,39.905 10.139,39.905 L2.272,25.202 C0.834,26.746 0.576,27.738 0.576,27.738 L10.127,45.335 C10.127,45.335 13.646,33.065 28.225,34.377 C44.425,35.833 48.38,25.964 48.38,25.964 L47.118,23.79 C44.321,27.373 38.328,32.58 27.529,31.61 Z" id="Shape"></path>
                <path d="M26.313,29.449 C42.527,30.751 49.423,16.966 49.423,16.966 L39.963,0.665 C39.963,0.665 32.273,11.576 20.771,10.118 C7.108,8.386 1.196,18.972 1.196,18.972 L9.924,35.18 C9.924,35.181 12.541,28.345 26.313,29.449 Z M21.508,12.811 L23.153,11.754 L24.104,13.231 C25.25,12.542 26.167,12.308 26.91,12.207 L27.628,14.429 C27.078,14.498 26.042,14.619 24.833,15.397 C23.742,16.098 23.704,16.811 24.006,17.282 C24.351,17.819 25.175,17.809 26.936,17.412 C29.405,16.822 30.788,17.239 31.77,18.764 C32.733,20.26 32.501,22.187 30.769,23.777 L31.882,25.505 L30.237,26.564 L29.201,24.953 C28.054,25.643 26.757,26.025 25.893,26.083 L25.134,23.794 C26.088,23.728 27.304,23.443 28.395,22.742 C29.353,22.125 29.775,21.307 29.355,20.655 C28.943,20.017 28.13,19.969 26.618,20.349 C24.433,20.899 22.668,20.849 21.62,19.222 C20.66,17.727 20.954,15.898 22.535,14.409 L21.508,12.811 Z" id="Shape"></path>
            </g>
        </g>
    </g>
</svg>
