
<svg width="94px" height="76px" viewBox="0 0 94 76" version="1.1" xmlns="http://www.w3.org/2000/svg" xmlns:xlink="http://www.w3.org/1999/xlink">
    <!-- Generator: Sketch 47.1 (45422) - http://www.bohemiancoding.com/sketch -->
    <desc>Created with Sketch.</desc>
    <defs></defs>
    <g id="Page-1" stroke="none" stroke-width="1" fill="none" fill-rule="evenodd">
        <g id="noun_1435446_cc" fill-rule="nonzero" fill="#16D895">
            <g id="Group">
                <path d="M81.4,0.5 L12.6,0.5 C5.972583,0.5 0.6,5.872583 0.6,12.5 L0.6,43.5 C0.6,50.127417 5.972583,55.5 12.6,55.5 L81.4,55.5 C88.027417,55.5 93.4,50.127417 93.4,43.5 L93.4,12.5 C93.4,5.872583 88.027417,0.5 81.4,0.5 Z M70.3,47.5 L23.7,47.5 C22.7913509,39.6207406 16.495905,33.4503698 8.6,32.7 L8.6,23.3 C16.495905,22.5496302 22.7913509,16.3792594 23.7,8.5 L70.3,8.5 C71.2086491,16.3792594 77.504095,22.5496302 85.4,23.3 L85.4,32.7 C77.504095,33.4503698 71.2086491,39.6207406 70.3,47.5 L70.3,47.5 Z M85.4,12.5 L85.4,15.3 C81.9084093,14.6532627 79.1476499,11.9713822 78.4,8.5 L81.4,8.5 C83.609139,8.5 85.4,10.290861 85.4,12.5 Z M12.5,8.5 L15.5,8.5 C14.7523501,11.9713822 11.9915907,14.6532627 8.5,15.3 L8.5,12.5 C8.49966294,11.4215784 8.93478967,10.3887095 9.7067044,9.63562201 C10.4786191,8.88253447 11.5219154,8.47303941 12.6,8.5 L12.5,8.5 Z M8.5,43.6 L8.5,40.7 C11.9915907,41.3467373 14.7523501,44.0286178 15.5,47.5 L12.5,47.5 C10.3300098,47.4457334 8.59932156,45.6706686 8.6,43.5 L8.5,43.6 Z M81.4,47.6 L78.4,47.6 C79.1476499,44.1286178 81.9084093,41.4467373 85.4,40.8 L85.4,43.6 C85.3457334,45.7699902 83.5706686,47.5006784 81.4,47.5 L81.4,47.6 Z" id="Shape"></path>
                <path d="M47,11.8 C38.0529871,11.8 30.8,19.0529871 30.8,28 C30.8,36.9470129 38.0529871,44.2 47,44.2 C55.9470129,44.2 63.2,36.9470129 63.2,28 C63.2,23.7034929 61.4932192,19.5829595 58.4551299,16.5448701 C55.4170405,13.5067808 51.2965071,11.8 47,11.8 L47,11.8 Z M47,36.2 C42.4712651,36.2 38.8,32.5287349 38.8,28 C38.8,23.4712651 42.4712651,19.8 47,19.8 C51.5287349,19.8 55.2,23.4712651 55.2,28 C55.2,32.5287349 51.5287349,36.2 47,36.2 L47,36.2 Z" id="Shape"></path>
                <path d="M83.4,61.5 C83.4,59.290861 81.609139,57.5 79.4,57.5 L14.6,57.5 C12.390861,57.5 10.6,59.290861 10.6,61.5 C10.6,63.709139 12.390861,65.5 14.6,65.5 L79.4,65.5 C81.609139,65.5 83.4,63.709139 83.4,61.5 Z" id="Shape"></path>
                <path d="M24.6,67.5 C22.390861,67.5 20.6,69.290861 20.6,71.5 C20.6,73.709139 22.390861,75.5 24.6,75.5 L69.4,75.5 C71.609139,75.5 73.4,73.709139 73.4,71.5 C73.4,69.290861 71.609139,67.5 69.4,67.5 L24.6,67.5 Z" id="Shape"></path>
            </g>
        </g>
    </g>
</svg>
